<svg width="41" height="41" viewBox="0 0 41 41" fill="none" xmlns="http://www.w3.org/2000/svg">
<path fill-rule="evenodd" clip-rule="evenodd" d="M20.379 0.325195C24.092 0.325278 27.4387 1.20603 30.4189 2.96485C33.4477 4.67481 35.8426 7.06782 37.6014 10.1456C39.4091 13.1748 40.3118 16.6943 40.3118 20.7007C40.3117 24.7066 39.4089 28.2488 37.6014 31.3266C35.8426 34.3556 33.4477 36.7247 30.4189 38.4347C27.4387 40.1446 24.0919 40.9999 20.379 41C16.6658 41 13.2939 40.1447 10.2647 38.4347C7.28481 36.7248 4.89157 34.3553 3.08399 31.3266C1.32528 28.2487 0.444478 24.7066 0.444336 20.7007C0.444336 16.6943 1.32511 13.1748 3.08399 10.1456C4.89154 7.06815 7.28494 4.67469 10.2647 2.96485C13.2939 1.20594 16.6658 0.325198 20.379 0.325195ZM29.5478 23.5439C28.8849 23.111 27.9953 23.2974 27.5615 23.96C26.3448 25.818 24.233 27.1867 21.0322 27.3503L20.379 27.3662C16.8091 27.3661 14.4924 25.9418 13.1947 23.96C12.7608 23.2972 11.8714 23.1107 11.2083 23.5439C10.5455 23.9779 10.3606 24.8672 10.7941 25.5303C12.6815 28.4132 15.9547 30.2359 20.379 30.236L21.1951 30.2165C25.2068 30.0057 28.1945 28.2329 29.9639 25.5303C30.3969 24.8673 30.2105 23.9778 29.5478 23.5439ZM16.5514 13.9714C15.759 13.9714 15.1161 14.6132 15.1156 15.4054V19.233C15.1156 20.0256 15.7587 20.6688 16.5514 20.6688C17.3439 20.6686 17.9872 20.0255 17.9872 19.233V15.4054C17.9867 14.6133 17.3436 13.9715 16.5514 13.9714ZM24.2048 13.9714C23.4128 13.9719 22.7712 14.6135 22.7708 15.4054V19.233C22.7708 20.0254 23.4125 20.6683 24.2048 20.6688C24.9973 20.6687 25.6406 20.0256 25.6406 19.233V15.4054C25.6401 14.6132 24.9971 13.9715 24.2048 13.9714Z" fill="#A684FF"/>
</svg>
