<svg width="17" height="18" viewBox="0 0 17 18" fill="none" xmlns="http://www.w3.org/2000/svg">
<path d="M8.3125 13.7002C8.62133 13.7042 8.87074 13.9539 8.875 14.2627V16.5127C8.875 16.8234 8.62316 17.0752 8.3125 17.0752C8.00184 17.0752 7.75 16.8234 7.75 16.5127V14.2627C7.75426 13.9539 8.00367 13.7042 8.3125 13.7002ZM4.20215 12.3281C4.42371 12.1217 4.76917 12.1278 4.9834 12.3418C5.19761 12.556 5.20359 12.9014 4.99707 13.123L3.40723 14.7129C3.30232 14.8191 3.15906 14.8786 3.00977 14.8779C2.86038 14.8794 2.71667 14.8198 2.6123 14.7129C2.39318 14.4933 2.39306 14.1375 2.6123 13.918L4.20215 12.3281ZM11.6416 12.3418C11.8558 12.1278 12.2013 12.1217 12.4229 12.3281L14.0127 13.918C14.2319 14.1375 14.2318 14.4933 14.0127 14.7129C13.9083 14.8198 13.7646 14.8794 13.6152 14.8779C13.4659 14.8786 13.3227 14.8191 13.2178 14.7129L11.6279 13.123C11.4214 12.9014 11.4274 12.556 11.6416 12.3418ZM8.3125 5.2627C10.3834 5.2627 12.0623 6.94182 12.0625 9.0127C12.0625 11.0838 10.3836 12.7627 8.3125 12.7627C6.24143 12.7627 4.5625 11.0838 4.5625 9.0127C4.56273 6.94182 6.24157 5.2627 8.3125 5.2627ZM3.0625 8.4502C3.37133 8.45423 3.62074 8.70392 3.625 9.0127C3.62096 9.32166 3.37147 9.57115 3.0625 9.5752H0.8125C0.50184 9.5752 0.25 9.32336 0.25 9.0127C0.250231 8.70223 0.501982 8.4502 0.8125 8.4502H3.0625ZM15.8125 8.4502C16.123 8.4502 16.3748 8.70223 16.375 9.0127C16.375 9.32336 16.1232 9.5752 15.8125 9.5752H13.5625C13.2518 9.5752 13 9.32336 13 9.0127C13.0002 8.70223 13.252 8.4502 13.5625 8.4502H15.8125ZM13.2178 3.31348C13.358 3.16299 13.5693 3.10047 13.7686 3.15137C13.9677 3.20234 14.123 3.35841 14.1738 3.55762C14.2247 3.75687 14.1631 3.96821 14.0127 4.1084L12.46 5.69824C12.3551 5.80442 12.2118 5.86399 12.0625 5.86328C11.9005 5.87463 11.7417 5.81411 11.6279 5.69824C11.4086 5.47863 11.4086 5.12293 11.6279 4.90332L13.2178 3.31348ZM2.85645 3.15137C3.05575 3.10047 3.267 3.16299 3.40723 3.31348L4.99707 4.90332C5.21641 5.12293 5.21641 5.47863 4.99707 5.69824C4.77744 5.91731 4.42167 5.91749 4.20215 5.69824L2.6123 4.1084C2.46185 3.96821 2.40034 3.75687 2.45117 3.55762C2.50205 3.35841 2.65727 3.20234 2.85645 3.15137ZM8.3125 0.950195C8.62302 0.950195 8.87477 1.20223 8.875 1.5127V3.7627C8.87096 4.07166 8.62147 4.32115 8.3125 4.3252C8.00353 4.32115 7.75404 4.07166 7.75 3.7627V1.5127C7.75023 1.20223 8.00198 0.950195 8.3125 0.950195Z" fill="white"/>
</svg>
